<svg width="32" height="36" viewBox="0 0 32 36" fill="none" xmlns="http://www.w3.org/2000/svg">
<g clip-path="url(#clip0_20:106)">
<path d="M28.5714 2.25H3.42857C2.51926 2.25 1.64719 2.60558 1.00421 3.23851C0.361223 3.87145 0 4.72989 0 5.625L0 30.375C0 31.2701 0.361223 32.1286 1.00421 32.7615C1.64719 33.3944 2.51926 33.75 3.42857 33.75H13.2321V23.0407H8.73214V18H13.2321V14.1581C13.2321 9.7882 15.875 7.37437 19.9229 7.37437C21.8614 7.37437 23.8886 7.71469 23.8886 7.71469V12.0037H21.655C19.4543 12.0037 18.7679 13.3481 18.7679 14.727V18H23.6807L22.895 23.0407H18.7679V33.75H28.5714C29.4807 33.75 30.3528 33.3944 30.9958 32.7615C31.6388 32.1286 32 31.2701 32 30.375V5.625C32 4.72989 31.6388 3.87145 30.9958 3.23851C30.3528 2.60558 29.4807 2.25 28.5714 2.25Z" fill="black"/>
</g>
<defs>
<clipPath id="clip0_20:106">
<rect width="32" height="36" fill="white"/>
</clipPath>
</defs>
</svg>
