<svg width="32" height="36" viewBox="0 0 32 36" fill="none" xmlns="http://www.w3.org/2000/svg">
<g clip-path="url(#clip0_20:111)">
<path d="M16 14.2495C15.2465 14.2498 14.51 14.47 13.8837 14.8823C13.2573 15.2946 12.7692 15.8804 12.481 16.5657C12.1929 17.2511 12.1176 18.0051 12.2648 18.7325C12.412 19.46 12.775 20.1281 13.3079 20.6525C13.8408 21.1769 14.5196 21.5339 15.2587 21.6785C15.9977 21.8231 16.7637 21.7488 17.4598 21.4648C18.1559 21.1809 18.7508 20.7002 19.1694 20.0835C19.588 19.4668 19.8114 18.7417 19.8114 18C19.8107 17.0053 19.4088 16.0516 18.6942 15.3483C17.9795 14.6451 17.0105 14.2499 16 14.2495ZM24.9079 11.3667C24.7139 10.8829 24.421 10.4434 24.0474 10.0756C23.6737 9.70776 23.2273 9.41944 22.7357 9.22852C21.2357 8.64563 17.6643 8.77641 16 8.77641C14.3357 8.77641 10.7679 8.6407 9.26357 9.22852C8.77203 9.41944 8.32559 9.70776 7.95193 10.0756C7.57828 10.4434 7.28539 10.8829 7.09143 11.3667C6.5 12.8433 6.63214 16.3624 6.63214 17.9993C6.63214 19.6362 6.5 23.1511 7.09429 24.6326C7.28825 25.1164 7.58114 25.5559 7.95479 25.9237C8.32844 26.2915 8.77489 26.5799 9.26643 26.7708C10.7664 27.3537 14.3379 27.2229 16.0029 27.2229C17.6679 27.2229 21.2343 27.3586 22.7386 26.7708C23.2301 26.5799 23.6766 26.2915 24.0502 25.9237C24.4239 25.5559 24.7168 25.1164 24.9107 24.6326C25.5071 23.156 25.37 19.6369 25.37 18C25.37 16.3631 25.5071 12.8489 24.9107 11.3674L24.9079 11.3667ZM16 23.7656C14.8416 23.7656 13.7091 23.4275 12.7459 22.7939C11.7827 22.1604 11.032 21.2599 10.5887 20.2064C10.1454 19.1529 10.0294 17.9936 10.2554 16.8752C10.4814 15.7568 11.0392 14.7294 11.8584 13.9231C12.6775 13.1167 13.7212 12.5676 14.8573 12.3452C15.9935 12.1227 17.1712 12.2369 18.2414 12.6733C19.3117 13.1096 20.2264 13.8486 20.87 14.7968C21.5136 15.7449 21.8571 16.8597 21.8571 18C21.8581 18.7574 21.7072 19.5076 21.4132 20.2075C21.1192 20.9074 20.6878 21.5434 20.1437 22.079C19.5996 22.6145 18.9536 23.0392 18.2425 23.3286C17.5315 23.618 16.7694 23.7666 16 23.7656ZM22.0986 13.3383C21.8281 13.3384 21.5638 13.2596 21.3388 13.1118C21.1139 12.964 20.9386 12.7539 20.835 12.508C20.7314 12.2621 20.7042 11.9915 20.7569 11.7304C20.8096 11.4693 20.9397 11.2294 21.1309 11.0411C21.3221 10.8529 21.5657 10.7246 21.8309 10.6726C22.0961 10.6206 22.371 10.6473 22.6209 10.7491C22.8707 10.8509 23.0843 11.0234 23.2345 11.2448C23.3848 11.4661 23.465 11.7263 23.465 11.9925C23.4658 12.1693 23.431 12.3445 23.3629 12.508C23.2947 12.6715 23.1944 12.8202 23.0677 12.9455C22.941 13.0708 22.7904 13.1702 22.6246 13.2381C22.4588 13.306 22.281 13.341 22.1014 13.3411L22.0986 13.3383ZM28.5714 2.25H3.42857C2.51926 2.25 1.64719 2.60558 1.00421 3.23851C0.361223 3.87145 0 4.72989 0 5.625L0 30.375C0 31.2701 0.361223 32.1286 1.00421 32.7615C1.64719 33.3944 2.51926 33.75 3.42857 33.75H28.5714C29.4807 33.75 30.3528 33.3944 30.9958 32.7615C31.6388 32.1286 32 31.2701 32 30.375V5.625C32 4.72989 31.6388 3.87145 30.9958 3.23851C30.3528 2.60558 29.4807 2.25 28.5714 2.25ZM27.3486 22.6406C27.2564 24.4427 26.8386 26.0395 25.5021 27.3516C24.1657 28.6636 22.545 29.0834 20.7164 29.1691C18.83 29.2739 13.1743 29.2739 11.2879 29.1691C9.45714 29.0784 7.84071 28.6664 6.50214 27.3516C5.16357 26.0367 4.74286 24.4392 4.65571 22.6406C4.54929 20.783 4.54929 15.2149 4.65571 13.3594C4.74786 11.5573 5.16071 9.96047 6.50214 8.64844C7.84357 7.33641 9.46429 6.92156 11.2879 6.83578C13.1743 6.73102 18.83 6.73102 20.7164 6.83578C22.5471 6.92648 24.1686 7.33852 25.5021 8.65336C26.8357 9.9682 27.2614 11.5657 27.3486 13.3678C27.455 15.2184 27.455 20.7816 27.3486 22.6406Z" fill="black"/>
</g>
<defs>
<clipPath id="clip0_20:111">
<rect width="32" height="36" fill="white"/>
</clipPath>
</defs>
</svg>
