<svg width="390" height="433" viewBox="0 0 390 433" fill="none" xmlns="http://www.w3.org/2000/svg">
<rect x="-8.5" y="1.5" width="37" height="197" stroke="black" stroke-width="3"/>
<rect x="139.5" y="1.5" width="37" height="197" stroke="black" stroke-width="3"/>
<rect x="29.5" y="1.5" width="37" height="197" stroke="black" stroke-width="3"/>
<rect x="175.5" y="1.5" width="37" height="197" stroke="black" stroke-width="3"/>
<rect x="286.5" y="1.5" width="37" height="197" stroke="black" stroke-width="3"/>
<rect x="65.5" y="1.5" width="37" height="197" stroke="black" stroke-width="3"/>
<rect x="212.5" y="1.5" width="37" height="197" stroke="black" stroke-width="3"/>
<rect x="323.5" y="1.5" width="37" height="197" stroke="black" stroke-width="3"/>
<rect x="101.5" y="1.5" width="37" height="197" stroke="black" stroke-width="3"/>
<rect x="249.5" y="1.5" width="37" height="197" stroke="black" stroke-width="3"/>
<rect x="360.5" y="1.5" width="37" height="197" stroke="black" stroke-width="3"/>
<rect x="13.5" y="67.5" width="31" height="197" fill="black" stroke="black" stroke-width="3"/>
<rect x="51.5" y="67.5" width="31" height="197" fill="black" stroke="black" stroke-width="3"/>
<rect x="89.5" y="67.5" width="31" height="197" fill="black" stroke="black" stroke-width="3"/>
<rect x="158.5" y="67.5" width="31" height="197" fill="black" stroke="black" stroke-width="3"/>
<rect x="200.5" y="67.5" width="31" height="197" fill="black" stroke="black" stroke-width="3"/>
<rect x="272.5" y="67.5" width="31" height="197" fill="black" stroke="black" stroke-width="3"/>
<rect x="309.5" y="67.5" width="31" height="197" fill="black" stroke="black" stroke-width="3"/>
<rect x="346.5" y="67.5" width="31" height="197" fill="black" stroke="black" stroke-width="3"/>
<path d="M390 185.613C248.392 140.807 165.371 130.759 0 184.611V432.961L390 433V185.613Z" fill="#FA8B45"/>
</svg>
