<svg width="283" height="264" viewBox="0 0 283 264" fill="none" xmlns="http://www.w3.org/2000/svg">
<circle cx="22.1144" cy="22.1144" r="19.6144" stroke="black" stroke-width="5"/>
<circle cx="181.295" cy="22.1144" r="19.6144" stroke="black" stroke-width="5"/>
<circle cx="101.705" cy="22.1144" r="19.6144" stroke="black" stroke-width="5"/>
<circle cx="260.885" cy="22.1144" r="19.6144" stroke="black" stroke-width="5"/>
<circle cx="22.1144" cy="95.2862" r="19.6144" stroke="black" stroke-width="5"/>
<circle cx="181.295" cy="95.2862" r="19.6144" stroke="black" stroke-width="5"/>
<circle cx="101.705" cy="95.2862" r="19.6144" stroke="black" stroke-width="5"/>
<circle cx="260.885" cy="95.2862" r="19.6144" stroke="black" stroke-width="5"/>
<circle cx="22.1144" cy="168.458" r="19.6144" stroke="black" stroke-width="5"/>
<circle cx="181.295" cy="168.458" r="19.6144" stroke="black" stroke-width="5"/>
<circle cx="101.705" cy="168.458" r="19.6144" stroke="black" stroke-width="5"/>
<circle cx="260.885" cy="168.458" r="19.6144" stroke="black" stroke-width="5"/>
<circle cx="22.1144" cy="241.63" r="19.6144" stroke="black" stroke-width="5"/>
<circle cx="181.295" cy="241.63" r="19.6144" stroke="black" stroke-width="5"/>
<circle cx="101.705" cy="241.63" r="19.6144" stroke="black" stroke-width="5"/>
<circle cx="260.885" cy="241.63" r="19.6144" stroke="black" stroke-width="5"/>
<path d="M21.8232 95.1348C89.9361 172.004 219.533 53.8521 260.594 21.8232" stroke="#0993AE" stroke-width="7" stroke-linecap="round"/>
<path d="M21.8232 240.896C65.3363 245.054 174.009 221.695 260.594 94.995" stroke="#FA8B45" stroke-width="7" stroke-linecap="round"/>
<path d="M21.8232 21.8232C50.483 88.9213 85.9513 141.275 181.004 168.167" stroke="#CD1C69" stroke-width="7" stroke-linecap="round"/>
</svg>
