<svg width="32" height="36" viewBox="0 0 32 36" fill="none" xmlns="http://www.w3.org/2000/svg">
<path d="M28.5714 2.25H3.42857C1.53571 2.25 0 3.76172 0 5.625V30.375C0 32.2383 1.53571 33.75 3.42857 33.75H28.5714C30.4643 33.75 32 32.2383 32 30.375V5.625C32 3.76172 30.4643 2.25 28.5714 2.25ZM25.0786 13.4156C25.0929 13.6125 25.0929 13.8164 25.0929 14.0133C25.0929 20.1094 20.3786 27.1336 11.7643 27.1336C9.10714 27.1336 6.64286 26.3742 4.57143 25.0664C4.95 25.1086 5.31429 25.1227 5.7 25.1227C7.89286 25.1227 9.90714 24.3914 11.5143 23.1539C9.45714 23.1117 7.72857 21.7828 7.13571 19.9547C7.85714 20.0602 8.50714 20.0602 9.25 19.8703C7.10714 19.4414 5.5 17.5852 5.5 15.3422V15.2859C6.12143 15.6305 6.85 15.8414 7.61429 15.8695C6.97173 15.4488 6.44499 14.878 6.08105 14.2082C5.71711 13.5383 5.52731 12.7901 5.52857 12.0305C5.52857 11.1727 5.75714 10.3852 6.16429 9.70312C8.47143 12.5016 11.9357 14.3297 15.8214 14.5266C15.1571 11.3977 17.5357 8.85938 20.3929 8.85938C21.7429 8.85938 22.9571 9.41484 23.8143 10.3148C24.8714 10.118 25.8857 9.73125 26.7857 9.20391C26.4357 10.2727 25.7 11.1727 24.7286 11.7422C25.6714 11.6438 26.5857 11.3836 27.4286 11.025C26.7929 11.9461 25.9929 12.7617 25.0786 13.4156Z" fill="black"/>
</svg>
